<svg viewBox="0 0 501 500" xmlns="http://www.w3.org/2000/svg">
<path fill="#ffffff" d=" M 233.02 13.12 C 242.59 8.57 254.09 8.23 263.87 12.35 C 267.75 13.98 271.46 16.00 275.26 17.82 C 340.00 50.07 404.79 82.23 469.51 114.50 C 480.55 119.92 488.58 130.94 490.33 143.12 C 492.30 155.57 487.59 168.79 478.21 177.20 C 472.81 182.28 465.73 184.84 459.28 188.26 C 397.25 219.18 335.20 250.04 273.15 280.94 C 268.22 283.37 263.33 286.10 257.91 287.29 C 249.72 289.19 240.91 288.27 233.29 284.73 C 184.39 260.23 135.59 235.51 86.65 211.08 C 86.68 249.74 86.66 288.40 86.66 327.06 C 140.89 354.28 195.16 381.39 249.34 408.70 C 311.64 377.94 373.80 346.91 436.06 316.07 C 446.78 310.94 459.88 311.23 470.35 316.86 C 481.25 322.51 488.99 333.73 490.45 345.92 C 492.12 358.36 487.15 371.41 477.66 379.61 C 473.29 383.61 467.76 385.89 462.56 388.56 C 397.25 420.95 331.98 453.42 266.66 485.79 C 256.24 491.08 243.39 491.28 232.87 486.17 C 165.62 452.46 98.40 418.72 31.15 385.03 C 20.95 379.95 13.25 370.15 10.88 358.99 C 9.78 354.40 9.96 349.66 9.96 344.98 C 9.96 279.66 9.95 214.34 9.97 149.02 C 9.76 134.89 18.13 121.11 30.75 114.75 C 98.18 80.88 165.59 46.99 233.02 13.12 M 133.67 148.82 C 172.35 168.18 210.91 187.79 249.65 207.02 C 288.46 187.53 327.40 168.29 366.26 148.89 C 327.36 129.33 288.35 110.01 249.34 90.67 C 210.84 110.16 172.25 129.48 133.67 148.82 Z" />
</svg>
